<?xml version="1.0" encoding="UTF-8" standalone="no"?>
<!DOCTYPE svg PUBLIC "-//W3C//DTD SVG 1.1//EN" "http://www.w3.org/Graphics/SVG/1.1/DTD/svg11.dtd">
<svg xmlns="http://www.w3.org/2000/svg" version="1.1" viewBox="0.00 0.00 1614.00 272.00">
<g fill="#26b">
<rect x="802.49" y="54.41" width="20.46" height="159.82" rx="0.64"/>
<path d="
  M 953.98 118.87
  Q 954.03 175.21 954.04 178.98
  C 954.08 188.57 958.05 195.54 968.31 195.70
  Q 976.63 195.83 981.82 195.64
  A 0.62 0.62 0.0 0 1 982.46 196.26
  L 982.46 213.62
  A 0.57 0.57 0.0 0 1 981.89 214.19
  Q 968.34 214.37 962.53 214.22
  C 951.69 213.94 940.66 207.77 936.70 197.00
  Q 934.13 189.99 934.13 184.87
  Q 934.16 145.65 934.08 119.03
  A 0.79 0.79 0.0 0 0 933.29 118.24
  L 912.28 118.24
  A 0.69 0.69 0.0 0 1 911.59 117.55
  L 911.59 101.14
  A 0.48 0.47 90.0 0 1 912.06 100.66
  L 930.69 100.66
  A 1.81 1.81 0.0 0 0 932.26 99.75
  C 933.57 97.47 934.20 95.94 934.21 93.14
  Q 934.24 86.52 934.24 68.43
  A 0.57 0.57 0.0 0 1 934.81 67.86
  L 953.47 67.86
  A 0.42 0.41 -0.0 0 1 953.89 68.27
  L 953.89 100.11
  A 0.53 0.53 0.0 0 0 954.42 100.64
  L 981.94 100.64
  A 0.55 0.55 0.0 0 1 982.49 101.19
  L 982.49 117.56
  A 0.65 0.64 0.0 0 1 981.84 118.20
  L 954.64 118.20
  A 0.67 0.66 -90.0 0 0 953.98 118.87
  Z"
/>
<path d="
  M 1434.98 101.40
  L 1434.98 117.74
  A 0.45 0.44 90.0 0 1 1434.54 118.19
  L 1406.88 118.19
  A 0.53 0.53 0.0 0 0 1406.35 118.72
  Q 1406.40 168.77 1406.27 175.71
  C 1406.07 186.49 1408.17 195.12 1420.25 195.54
  Q 1429.27 195.86 1434.44 195.65
  A 0.46 0.46 0.0 0 1 1434.92 196.11
  L 1434.92 213.70
  A 0.58 0.58 0.0 0 1 1434.34 214.28
  Q 1432.70 214.28 1419.26 214.38
  C 1400.26 214.51 1386.66 204.01 1386.50 184.24
  Q 1386.26 154.90 1386.49 118.67
  A 0.50 0.50 0.0 0 0 1385.99 118.17
  L 1364.94 118.17
  A 0.94 0.94 0.0 0 1 1364.00 117.23
  L 1364.00 101.28
  A 0.61 0.60 90.0 0 1 1364.60 100.67
  L 1384.11 100.67
  A 1.36 1.34 9.3 0 0 1385.39 99.76
  C 1386.19 97.41 1386.63 95.93 1386.64 93.38
  Q 1386.66 82.75 1386.70 68.26
  A 0.37 0.37 0.0 0 1 1387.07 67.89
  L 1405.54 67.89
  A 0.83 0.83 0.0 0 1 1406.37 68.72
  L 1406.37 99.77
  A 0.92 0.92 0.0 0 0 1407.29 100.69
  L 1434.27 100.69
  A 0.71 0.71 0.0 0 1 1434.98 101.40
  Z"
/>
<path d="
  M 185.36 85.21
  L 188.48 86.47
  C 192.13 88.42 197.17 90.24 199.76 92.40
  C 203.24 95.30 206.66 99.47 208.10 103.79
  Q 208.49 104.94 208.49 107.83
  Q 208.60 196.99 208.49 207.74
  C 208.31 226.74 197.45 242.90 178.12 246.48
  C 173.22 247.39 165.77 246.82 159.64 246.94
  A 0.68 0.68 0.0 0 1 158.95 246.26
  L 158.96 100.23
  Q 164.38 94.50 169.31 92.30
  Q 174.47 89.99 176.68 88.44
  Q 181.22 85.26 185.36 85.21
  Z"
/>
<path d="
  M 390.46 157.64
  C 390.44 121.79 417.63 94.47 454.20 98.23
  Q 475.47 100.43 488.14 116.58
  A 0.34 0.34 0.0 0 0 488.74 116.37
  L 488.72 101.36
  A 0.53 0.53 0.0 0 1 489.25 100.82
  L 508.35 100.79
  A 0.80 0.79 0.0 0 1 509.15 101.58
  Q 509.22 124.18 509.24 157.57
  Q 509.26 190.96 509.22 213.55
  A 0.80 0.79 -0.1 0 1 508.42 214.34
  L 489.31 214.34
  A 0.53 0.53 0.0 0 1 488.78 213.81
  L 488.79 198.79
  A 0.34 0.34 0.0 0 0 488.19 198.58
  Q 475.54 214.75 454.27 216.97
  C 417.70 220.78 390.48 193.49 390.46 157.64
  Z
  M 411.65 156.88
  C 411.27 179.73 426.15 198.06 449.63 198.45
  C 473.10 198.84 488.58 181.01 488.96 158.17
  C 489.34 135.32 474.45 116.99 450.98 116.60
  C 427.51 116.21 412.03 134.04 411.65 156.88
  Z"
/>
<path d="
  M 564.89 114.85
  A 0.33 0.32 -49.2 0 0 565.39 114.81
  C 575.00 101.53 590.43 96.56 606.49 98.19
  C 619.65 99.52 632.47 106.15 639.06 117.66
  C 644.40 126.99 645.49 135.06 645.44 146.81
  Q 645.38 158.68 645.43 213.79
  A 0.46 0.45 -0.0 0 1 644.97 214.24
  L 625.85 214.24
  A 0.77 0.77 0.0 0 1 625.08 213.47
  Q 625.04 204.58 624.95 148.25
  C 624.93 132.11 618.43 120.04 601.64 117.13
  C 581.56 113.65 564.81 127.65 564.75 148.01
  Q 564.67 174.77 564.75 213.63
  A 0.62 0.62 0.0 0 1 564.13 214.25
  L 544.80 214.25
  A 0.58 0.58 0.0 0 1 544.22 213.67
  L 544.22 101.36
  A 0.57 0.57 0.0 0 1 544.79 100.79
  L 563.85 100.79
  A 0.64 0.64 0.0 0 1 564.49 101.40
  Q 564.90 109.58 564.71 114.01
  Q 564.68 114.64 564.89 114.85
  Z"
/>
<path d="
  M 692.48 178.68
  A 0.94 0.93 86.9 0 1 693.41 179.52
  C 694.96 193.87 707.87 198.93 720.50 199.56
  C 729.77 200.02 747.96 198.91 751.42 187.83
  C 755.17 175.79 746.17 170.51 736.06 168.68
  Q 710.75 164.08 707.40 163.36
  C 690.70 159.76 675.78 153.21 675.38 133.49
  C 674.96 112.39 691.67 101.69 710.29 98.73
  C 735.62 94.69 769.09 103.26 770.21 134.90
  A 0.41 0.41 0.0 0 1 769.80 135.33
  L 751.14 135.33
  A 0.94 0.94 0.0 0 1 750.20 134.48
  Q 749.07 123.01 738.61 118.86
  C 727.54 114.47 712.32 114.26 702.32 120.32
  C 694.26 125.20 693.48 137.22 702.51 142.09
  Q 705.67 143.79 710.99 145.04
  C 719.91 147.13 736.99 149.01 749.86 152.87
  C 760.24 155.99 770.50 163.89 772.40 175.15
  Q 775.66 194.50 762.01 206.39
  C 753.31 213.97 740.08 216.90 728.26 217.32
  C 712.79 217.87 695.43 215.51 683.89 204.21
  Q 674.05 194.59 672.73 179.64
  A 0.89 0.88 87.6 0 1 673.61 178.68
  L 692.48 178.68
  Z"
/>
<path d="
  M 1115.74 163.68
  A 0.61 0.61 0.0 0 1 1115.13 164.26
  L 1021.98 164.26
  A 0.57 0.57 0.0 0 0 1021.41 164.89
  Q 1022.78 177.30 1030.15 186.09
  C 1041.14 199.21 1060.51 201.74 1075.96 195.69
  Q 1085.45 191.99 1090.58 182.00
  A 1.01 1.01 0.0 0 1 1091.48 181.45
  L 1112.06 181.45
  A 0.46 0.46 0.0 0 1 1112.50 182.06
  C 1103.97 206.54 1080.67 218.47 1055.78 217.27
  C 1018.69 215.48 995.95 184.09 1000.67 148.24
  C 1004.70 117.69 1029.15 97.20 1059.69 97.96
  C 1077.54 98.41 1094.93 106.53 1105.15 121.56
  C 1113.76 134.23 1116.54 148.69 1115.74 163.68
  Z
  M 1058.06 147.69
  Q 1084.25 147.65 1093.75 147.52
  A 0.62 0.61 -5.3 0 0 1094.35 146.80
  C 1091.24 128.34 1076.69 116.38 1058.01 116.42
  C 1039.32 116.45 1024.82 128.46 1021.77 146.93
  A 0.62 0.61 5.1 0 0 1022.37 147.65
  Q 1031.87 147.74 1058.06 147.69
  Z"
/>
<path d="
  M 1338.10 157.53
  Q 1338.14 190.91 1338.11 213.50
  A 0.80 0.79 -0.1 0 1 1337.31 214.29
  L 1318.21 214.29
  A 0.53 0.53 0.0 0 1 1317.68 213.76
  L 1317.68 198.75
  A 0.34 0.34 0.0 0 0 1317.08 198.54
  Q 1304.44 214.71 1283.17 216.94
  C 1246.62 220.76 1219.39 193.49 1219.35 157.65
  C 1219.32 121.80 1246.49 94.48 1283.05 98.23
  Q 1304.32 100.41 1317.00 116.56
  A 0.34 0.34 0.0 0 0 1317.60 116.34
  L 1317.56 101.33
  A 0.53 0.53 0.0 0 1 1318.09 100.80
  L 1337.19 100.76
  A 0.80 0.79 0.0 0 1 1337.99 101.55
  Q 1338.07 124.14 1338.10 157.53
  Z
  M 1240.58 156.72
  C 1240.14 179.55 1254.97 197.91 1278.42 198.36
  C 1301.88 198.82 1317.40 181.04 1317.84 158.21
  C 1318.28 135.38 1303.45 117.02 1280.00 116.57
  C 1256.54 116.12 1241.02 133.90 1240.58 156.72
  Z"
/>
<path d="
  M 1567.64 163.71
  A 0.61 0.61 0.0 0 1 1567.03 164.29
  L 1473.86 164.29
  A 0.57 0.57 0.0 0 0 1473.29 164.92
  Q 1474.66 177.33 1482.03 186.13
  C 1493.02 199.25 1512.40 201.78 1527.85 195.73
  Q 1537.34 192.03 1542.47 182.03
  A 1.01 1.01 0.0 0 1 1543.37 181.48
  L 1563.96 181.48
  A 0.46 0.46 0.0 0 1 1564.40 182.09
  C 1555.87 206.58 1532.56 218.51 1507.66 217.31
  C 1470.56 215.52 1447.82 184.12 1452.54 148.27
  C 1456.57 117.71 1481.03 97.21 1511.58 97.97
  C 1529.43 98.42 1546.83 106.54 1557.05 121.58
  C 1565.66 134.25 1568.44 148.72 1567.64 163.71
  Z
  M 1509.87 147.70
  Q 1536.10 147.65 1545.61 147.52
  A 0.62 0.61 -5.4 0 0 1546.21 146.80
  C 1543.09 128.31 1528.52 116.34 1509.80 116.38
  C 1491.09 116.42 1476.56 128.44 1473.52 146.95
  A 0.62 0.61 5.1 0 0 1474.12 147.67
  Q 1483.63 147.76 1509.87 147.70
  Z"
/>
<path d="
  M 335.56 117.25
  Q 335.92 116.92 337.85 114.11
  C 341.86 108.27 349.27 103.69 355.12 101.86
  Q 366.15 98.40 378.35 99.96
  A 0.38 0.38 0.0 0 1 378.69 100.34
  L 378.69 119.56
  A 0.60 0.60 0.0 0 1 377.99 120.15
  C 362.88 117.43 347.50 120.33 339.75 134.55
  C 335.93 141.57 335.19 149.53 335.21 159.07
  Q 335.27 181.49 335.14 213.70
  A 0.55 0.55 0.0 0 1 334.59 214.25
  L 315.30 214.25
  A 0.50 0.50 0.0 0 1 314.80 213.75
  L 314.80 101.30
  A 0.61 0.60 90.0 0 1 315.40 100.69
  L 334.46 100.69
  A 0.62 0.62 0.0 0 1 335.08 101.31
  L 335.08 117.04
  A 0.29 0.28 68.5 0 0 335.56 117.25
  Z"
/>
<path d="
  M 1165.18 117.29
  Q 1165.54 116.96 1167.46 114.15
  C 1171.45 108.30 1178.85 103.71 1184.69 101.87
  Q 1195.70 98.39 1207.89 99.93
  A 0.38 0.38 0.0 0 1 1208.23 100.31
  L 1208.27 119.51
  A 0.60 0.60 0.0 0 1 1207.57 120.10
  C 1192.47 117.41 1177.11 120.34 1169.40 134.56
  C 1165.60 141.58 1164.87 149.54 1164.91 159.07
  Q 1165.02 181.47 1164.95 213.65
  A 0.55 0.55 0.0 0 1 1164.41 214.20
  L 1145.13 214.24
  A 0.50 0.50 0.0 0 1 1144.63 213.74
  L 1144.41 101.40
  A 0.61 0.60 89.9 0 1 1145.00 100.79
  L 1164.05 100.75
  A 0.62 0.62 0.0 0 1 1164.67 101.37
  L 1164.70 117.08
  A 0.29 0.28 68.4 0 0 1165.18 117.29
  Z"
/>
<rect x="862.44" y="100.71" width="20.26" height="113.52" rx="0.66"/>
</g>
<g fill="#4488bb">
<path d="
  M 188.48 86.47
  L 185.36 85.21
  L 174.81 80.33
  A 4.17 4.02 -12.4 0 1 174.01 79.84
  Q 170.39 76.95 166.68 75.81
  Q 161.20 74.12 158.75 72.97
  A 3.53 3.46 62.2 0 0 157.94 72.71
  L 152.35 71.71
  Q 145.75 69.01 139.17 68.91
  Q 128.95 68.76 99.96 68.83
  Q 88.31 68.85 84.13 67.72
  C 73.15 64.75 63.12 59.73 59.10 48.20
  Q 58.30 45.92 56.86 43.03
  A 1.86 1.82 -60.8 0 1 56.65 42.26
  L 56.10 31.36
  A 1.72 1.72 0.0 0 1 57.82 29.55
  L 296.84 29.55
  A 0.58 0.58 0.0 0 1 297.42 30.12
  Q 297.61 44.12 297.41 46.25
  C 296.31 57.75 288.41 64.97 277.50 67.78
  Q 273.90 68.71 264.91 68.77
  Q 240.16 68.93 228.83 68.92
  C 222.82 68.92 215.21 69.92 211.49 75.01
  Q 210.26 76.69 209.13 78.26
  A 2.52 2.47 6.9 0 1 207.97 79.15
  L 188.48 86.47
  Z"
/>
<ellipse cx="0.00" cy="0.00" transform="translate(872.69,67.48) rotate(-5.1)" rx="14.09" ry="13.57"/>
</g>
<path fill="#4488bb" d="
  M 185.36 85.21
  Q 181.22 85.26 176.68 88.44
  Q 174.47 89.99 169.31 92.30
  Q 164.38 94.50 158.96 100.23
  Q 158.93 91.66 158.88 82.36
  Q 158.85 76.33 152.35 71.71
  L 157.94 72.71
  A 3.53 3.46 62.2 0 1 158.75 72.97
  Q 161.20 74.12 166.68 75.81
  Q 170.39 76.95 174.01 79.84
  A 4.17 4.02 -12.4 0 0 174.81 80.33
  L 185.36 85.21
  Z"
/>
</svg>